#!OML:ASF E:\emotionWalksFemale\Project 1\Capture day 1\Session 1\Female1.ASF
:FULLY-SPECIFIED
:DEGREES
81
root 8.92551 15.5338 22.636 179.455 0.3256 179.986
lowerback 8.79175 0.3091 -0.627193
upperback -4.82404 0.404327 -0.220068
thorax -10.1057 0.2669 0.0401867
lowerneck -9.15936 -2.50494 -6.42697
upperneck 13.4005 -4.01374 8.30815
head 5.84113 -1.82805 3.35949
rclavicle -5.97596e-015 7.35503e-015
rhumerus -48.0995 23.5743 -98.7243
rradius 35.5898
rwrist 22.7844
rhand -5.6189 -53.6199
rfingers 7.12502
rthumb 20.1987 -82.5898
lclavicle -5.97596e-015 7.35503e-015
lhumerus -48.1553 -13.3438 88.3062
lradius 31.5585
lwrist -21.2693
lhand 1.94043 -39.836
lfingers 7.12502
lthumb 27.4476 -11.8158
rfemur -0.0530264 19.1074 26.4735
rtibia 15.5923
rfoot -15.6129 -30.7084
rtoes 6.84283
lfemur -4.62839 -22.326 -24.7748
ltibia 21.1115
lfoot -20.291 20.9381
ltoes -22.2476
82
root 8.92505 15.5323 22.634 179.464 0.386374 179.974
lowerback 8.84697 0.301204 -0.612652
upperback -4.83538 0.392289 -0.251974
thorax -10.1508 0.258925 -0.000558016
lowerneck -9.1919 -2.45246 -6.41823
upperneck 13.3727 -3.94617 8.36002
head 5.83357 -1.79013 3.37989
rclavicle 5.09386e-016 3.08116e-015
rhumerus -48.1278 23.937 -98.4712
rradius 35.4621
rwrist 22.9977
rhand -5.17733 -53.8954
rfingers 7.12502
rthumb 20.623 -82.8198
lclavicle 5.09386e-016 3.08116e-015
lhumerus -48.4419 -13.952 87.9325
lradius 31.3905
lwrist -21.411
lhand 2.24919 -39.7588
lfingers 7.12502
lthumb 27.7429 -11.7858
rfemur -0.093947 19.1227 26.4444
rtibia 15.6248
rfoot -15.6942 -30.6374
rtoes 7.32042
lfemur -4.64355 -22.218 -24.7814
ltibia 21.1244
lfoot -20.3098 20.8251
ltoes -21.8999
83
root 8.9244 15.5294 22.6319 179.488 0.453393 179.982
lowerback 8.85712 0.293955 -0.609015
upperback -4.8273 0.383659 -0.235788
thorax -10.1479 0.254817 0.0162804
lowerneck -9.10233 -2.45127 -6.51417
upperneck 13.1204 -3.91169 8.40342
head 5.73947 -1.77385 3.41209
rclavicle 1.40392e-015 4.96962e-016
rhumerus -48.0685 24.4331 -98.1342
rradius 35.2232
rwrist 23.4264
rhand -5.25961 -53.8077
rfingers 7.12502
rthumb 20.544 -82.7407
lclavicle 1.40392e-015 4.96962e-016
lhumerus -48.6631 -14.2391 87.3688
lradius 31.1875
lwrist -21.6975
lhand 2.4124 -39.5762
lfingers 7.12502
lthumb 27.8989 -11.6284
rfemur -0.165461 19.1069 26.4282
rtibia 15.6903
rfoot -15.6144 -30.5302
rtoes 7.42423
lfemur -4.64485 -22.1868 -24.7734
ltibia 21.1019
lfoot -20.169 20.911
ltoes -22.5903
84
root 8.92542 15.5299 22.6303 179.519 0.512529 179.982
lowerback 8.91186 0.273201 -0.661571
upperback -4.83833 0.350799 -0.206351
thorax -10.1932 0.243754 0.082713
lowerneck -8.95054 -2.4626 -6.58162
upperneck 12.7888 -3.89195 8.42528
head 5.61044 -1.76605 3.43141
rclavicle 2.90723e-015 -4.96962e-016
rhumerus -47.9673 24.7914 -97.6423
rradius 34.942
rwrist 24.4944
rhand -5.48095 -53.3957
rfingers 7.12502
rthumb 20.3313 -82.3515
lclavicle 2.90723e-015 -4.96962e-016
lhumerus -48.9609 -14.4154 86.6764
lradius 31.119
lwrist -21.9053
lhand 2.26796 -39.7812
lfingers 7.12502
lthumb 27.7608 -11.8111
rfemur -0.243205 19.1125 26.4076
rtibia 15.7667
rfoot -15.6586 -30.4319
rtoes 7.49703
lfemur -4.63206 -22.1953 -24.7707
ltibia 21.061
lfoot -20.1895 20.9608
ltoes -22.4605
85
root 8.92664 15.5352 22.6291 179.569 0.569615 179.947
lowerback 9.02701 0.258957 -0.722725
upperback -4.84429 0.319481 -0.227709
thorax -10.2686 0.231731 0.0990608
lowerneck -9.0105 -2.45189 -6.55576
upperneck 12.6017 -3.86237 8.47549
head 5.561 -1.74284 3.44415
rclavicle 4.34841e-016 1.59028e-015
rhumerus -47.7798 24.9534 -97.0703
rradius 34.7001
rwrist 25.1984
rhand -5.60498 -53.0287
rfingers 7.12502
rthumb 20.2121 -81.9971
lclavicle 4.34841e-016 1.59028e-015
lhumerus -49.1355 -14.4998 85.8141
lradius 31.0377
lwrist -22.0377
lhand 2.91594 -40.1022
lfingers 7.12502
lthumb 28.3802 -12.2336
rfemur -0.356286 18.9707 26.3273
rtibia 15.8431
rfoot -15.6401 -30.2126
rtoes 7.60769
lfemur -4.65524 -22.1777 -24.7792
ltibia 21.0201
lfoot -20.419 20.8987
ltoes -21.7459
86
root 8.92771 15.5371 22.626 179.602 0.635886 179.934
lowerback 9.07589 0.261313 -0.770031
upperback -4.83321 0.31362 -0.23888
thorax -10.2857 0.231211 0.114597
lowerneck -9.02267 -2.43673 -6.55552
upperneck 12.3932 -3.82413 8.52632
head 5.49651 -1.71794 3.46228
rclavicle -2.73329e-015 -3.47873e-015
rhumerus -47.628 25.0264 -96.4339
rradius 34.4639
rwrist 25.5258
rhand -5.32026 -52.9155
rfingers 7.12502
rthumb 20.4857 -81.8547
lclavicle -2.73329e-015 -3.47873e-015
lhumerus -49.1842 -14.2834 84.7613
lradius 30.8077
lwrist -22.4082
lhand 3.92329 -40.1237
lfingers 7.12502
lthumb 29.3425 -12.4193
rfemur -0.422779 18.825 26.2915
rtibia 15.8828
rfoot -15.4755 -30.0693
rtoes 7.03336
lfemur -4.69116 -22.0371 -24.7597
ltibia 21.0184
lfoot -20.4667 20.8481
ltoes -22.2165
87
root 8.92791 15.536 22.6224 179.612 0.71203 179.999
lowerback 9.11652 0.279842 -0.722679
upperback -4.84458 0.345671 -0.226616
thorax -10.3226 0.243967 0.0950527
lowerneck -8.86074 -2.45318 -6.62604
upperneck 12.1213 -3.82999 8.60299
head 5.38784 -1.72177 3.49775
rclavicle 3.57812e-015 -5.96354e-015
rhumerus -47.551 24.9596 -95.7088
rradius 34.2221
rwrist 25.9365
rhand -4.13472 -53.2683
rfingers 7.12502
rthumb 21.6246 -82.0808
lclavicle 3.57812e-015 -5.96354e-015
lhumerus -49.341 -14.1249 83.7053
lradius 30.6233
lwrist -22.8166
lhand 4.25763 -40.1145
lfingers 7.12502
lthumb 29.6616 -12.4665
rfemur -0.417841 18.7992 26.3687
rtibia 15.8792
rfoot -15.5763 -30.0458
rtoes 6.8261
lfemur -4.71978 -21.8138 -24.6705
ltibia 21.0691
lfoot -20.2873 20.8299
ltoes -23.0861
88
root 8.928 15.5336 22.6207 179.597 0.791636 180.059
lowerback 9.16416 0.309565 -0.683345
upperback -4.80466 0.38874 -0.214864
thorax -10.3068 0.26104 0.0779718
lowerneck -8.78037 -2.49445 -6.73847
upperneck 11.8368 -3.86353 8.73072
head 5.29352 -1.73511 3.55367
rclavicle 6.08778e-016 -9.93923e-017
rhumerus -47.4076 25.0196 -95.0327
rradius 33.9697
rwrist 26.0701
rhand -3.45774 -53.7348
rfingers 7.12502
rthumb 22.2746 -82.471
lclavicle 6.08778e-016 -9.93923e-017
lhumerus -49.4733 -14.1626 82.718
lradius 30.5934
lwrist -22.9596
lhand 4.23639 -40.3193
lfingers 7.12502
lthumb 29.6414 -12.6677
rfemur -0.398343 18.695 26.4386
rtibia 15.8574
rfoot -15.5834 -29.9408
rtoes 6.47744
lfemur -4.73982 -21.5984 -24.5964
ltibia 21.1529
lfoot -20.2388 20.6877
ltoes -22.8065
89
root 8.92924 15.5318 22.6205 179.593 0.885664 180.063
lowerback 9.18032 0.352186 -0.735191
upperback -4.72181 0.435234 -0.203845
thorax -10.2255 0.284992 0.111448
lowerneck -8.81451 -2.53795 -6.79603
upperneck 11.5717 -3.8898 8.7916
head 5.22229 -1.74238 3.57911
rclavicle 7.57867e-016 -6.36111e-015
rhumerus -47.1331 25.0894 -94.29
rradius 33.6378
rwrist 26.2077
rhand -3.48072 -53.9091
rfingers 7.12502
rthumb 22.2525 -82.648
lclavicle 7.57867e-016 -6.36111e-015
lhumerus -49.5298 -14.0455 81.6088
lradius 30.6614
lwrist -23.2036
lhand 4.12363 -40.4531
lfingers 7.12502
lthumb 29.5337 -12.7824
rfemur -0.417331 18.6315 26.442
rtibia 15.8512
rfoot -15.406 -29.8385
rtoes 5.959
lfemur -4.77499 -21.3937 -24.5727
ltibia 21.2388
lfoot -20.2668 20.5624
ltoes -22.9293
90
root 8.93034 15.535 22.6205 179.637 0.947944 180.108
lowerback 9.18603 0.38884 -0.724601
upperback -4.67178 0.483643 -0.198675
thorax -10.1738 0.306352 0.102906
lowerneck -8.81828 -2.58704 -6.75494
upperneck 11.3348 -3.93544 8.78832
head 5.15318 -1.76072 3.5666
rclavicle -1.16786e-015 -5.96354e-016
rhumerus -46.7918 24.914 -93.3383
rradius 33.2844
rwrist 26.7754
rhand -2.96148 -54.014
rfingers 7.12502
rthumb 22.7509 -82.6926
lclavicle -1.16786e-015 -5.96354e-016
lhumerus -49.5409 -13.6617 80.2465
lradius 30.6141
lwrist -23.8507
lhand 3.7013 -40.5065
lfingers 7.12502
lthumb 29.1305 -12.7653
rfemur -0.505729 18.6416 26.4646
rtibia 15.8825
rfoot -15.3872 -29.7525
rtoes 6.2884
lfemur -4.85117 -21.2504 -24.4856
ltibia 21.3072
lfoot -20.2735 20.5396
ltoes -23.4368
91
root 8.93091 15.5364 22.62 179.675 0.986987 180.129
lowerback 9.25399 0.410552 -0.730942
upperback -4.67841 0.510455 -0.204215
thorax -10.2219 0.319384 0.095129
lowerneck -8.66871 -2.6381 -6.70968
upperneck 11.0624 -3.99245 8.77649
head 5.04771 -1.79044 3.55099
rclavicle -1.0312e-015 -1.09332e-015
rhumerus -46.6335 24.7927 -92.4719
rradius 32.9968
rwrist 27.2264
rhand -2.77497 -54.0617
rfingers 7.12502
rthumb 22.9299 -82.7182
lclavicle -1.0312e-015 -1.09332e-015
lhumerus -49.6045 -13.2218 78.8269
lradius 30.4869
lwrist -24.358
lhand 3.29939 -40.7082
lfingers 7.12502
lthumb 28.7466 -12.9011
rfemur -0.615076 18.5732 26.4486
rtibia 15.9725
rfoot -15.4563 -29.5688
rtoes 7.00607
lfemur -4.9123 -21.0977 -24.4271
ltibia 21.3349
lfoot -20.4146 20.342
ltoes -22.4149
92
root 8.93075 15.5337 22.6192 179.692 1.06701 180.083
lowerback 9.41591 0.443106 -0.794062
upperback -4.73118 0.543523 -0.221118
thorax -10.3779 0.339782 0.104547
lowerneck -8.43938 -2.67372 -6.74252
upperneck 10.7397 -4.01479 8.75409
head 4.91187 -1.80839 3.54844
rclavicle -2.3233e-015 3.97569e-016
rhumerus -46.6599 24.7034 -91.6726
rradius 32.7637
rwrist 27.5894
rhand -3.21945 -53.855
rfingers 7.12502
rthumb 22.5033 -82.5638
lclavicle -2.3233e-015 3.97569e-016
lhumerus -49.8252 -12.9081 77.5253
lradius 30.4941
lwrist -24.4414
lhand 3.18202 -40.8438
lfingers 7.12502
lthumb 28.6345 -13.0178
rfemur -0.739825 18.4847 26.3735
rtibia 16.1202
rfoot -15.3811 -29.4392
rtoes 6.6068
lfemur -4.94461 -20.8228 -24.4497
ltibia 21.3308
lfoot -20.5963 20.0026
ltoes -20.8377
93
root 8.92983 15.533 22.6173 179.731 1.16175 180.017
lowerback 9.50567 0.493917 -0.839036
upperback -4.76278 0.600659 -0.274536
thorax -10.4672 0.368826 0.0607511
lowerneck -8.23939 -2.69838 -6.73705
upperneck 10.4211 -4.02728 8.73531
head 4.78115 -1.81917 3.5414
rclavicle -8.32411e-016 -9.93923e-016
rhumerus -46.6978 24.4787 -90.8068
rradius 32.6313
rwrist 28.1476
rhand -3.49342 -53.5021
rfingers 7.12502
rthumb 22.2404 -82.2424
lclavicle -8.32411e-016 -9.93923e-016
lhumerus -49.9803 -12.6961 76.186
lradius 30.5032
lwrist -24.5245
lhand 3.20537 -40.8586
lfingers 7.12502
lthumb 28.6568 -13.0363
rfemur -0.901357 18.3674 26.2724
rtibia 16.2857
rfoot -15.2302 -29.3511
rtoes 5.57843
lfemur -4.99287 -20.5275 -24.49
ltibia 21.339
lfoot -20.5675 19.8312
ltoes -20.7552
94
root 8.92943 15.5324 22.6148 179.781 1.23757 179.956
lowerback 9.4886 0.536474 -0.873919
upperback -4.73349 0.645744 -0.345962
thorax -10.4244 0.389475 -0.00410901
lowerneck -8.17551 -2.73121 -6.6723
upperneck 10.1616 -4.06562 8.77552
head 4.69389 -1.83465 3.54029
rclavicle 6.01324e-015 -9.34288e-015
rhumerus -46.6801 24.4275 -90.0373
rradius 32.5623
rwrist 28.4436
rhand -3.5237 -53.1712
rfingers 7.12502
rthumb 22.2113 -81.9151
lclavicle 6.01324e-015 -9.34288e-015
lhumerus -50.072 -12.5393 74.7603
lradius 30.5783
lwrist -24.5074
lhand 3.41597 -41.0201
lfingers 7.12502
lthumb 28.858 -13.232
rfemur -1.04458 18.196 26.1688
rtibia 16.4242
rfoot -15.2194 -29.1511
rtoes 5.21389
lfemur -5.06666 -20.3192 -24.5244
ltibia 21.3856
lfoot -20.3701 19.8547
ltoes -22.184
